<?xml version="1.0" standalone="no"?>
<!DOCTYPE svg PUBLIC "-//W3C//DTD SVG 20010904//EN"
 "http://www.w3.org/TR/2001/REC-SVG-20010904/DTD/svg10.dtd">
<svg version="1.0" xmlns="http://www.w3.org/2000/svg"
 width="1024.000000pt" height="1024.000000pt" viewBox="0 0 1024.000000 1024.000000"
 preserveAspectRatio="xMidYMid meet">

<g transform="translate(0.000000,1024.000000) scale(0.100000,-0.100000)"
fill="#000000" stroke="none">
<path d="M0 5120 l0 -5120 5120 0 5120 0 0 5120 0 5120 -5120 0 -5120 0 0
-5120z m2390 3865 c18 -22 5 -47 -68 -128 -132 -149 -227 -348 -251 -530 -16
-112 -13 -366 4 -477 16 -109 42 -203 54 -196 4 3 11 88 14 188 7 206 19 268
87 438 92 234 255 490 311 490 24 0 44 -40 36 -72 -7 -27 -45 -88 -150 -243
-93 -137 -120 -193 -153 -322 -23 -88 -25 -111 -20 -228 3 -96 10 -146 26
-192 54 -157 199 -308 333 -348 23 -7 43 -19 45 -28 2 -8 -4 -40 -13 -71 -13
-46 -20 -56 -34 -51 -13 4 -23 -6 -39 -40 -12 -25 -22 -52 -22 -60 0 -21 -2
-20 -67 22 -133 84 -347 285 -428 403 -109 156 -158 311 -157 505 0 320 115
636 312 858 75 85 150 119 180 82z m2907 -7 c31 -25 52 -93 63 -202 6 -60 8
-134 5 -165 -12 -116 -29 -207 -47 -249 -10 -24 -18 -55 -18 -68 0 -14 -4 -22
-10 -19 -6 3 -15 -6 -20 -22 -6 -15 -20 -46 -31 -68 -12 -22 -34 -73 -51 -114
-25 -64 -28 -78 -17 -98 9 -18 15 -20 21 -11 6 8 7 -1 3 -22 -10 -49 -74 -197
-140 -320 -103 -193 -224 -442 -244 -504 -43 -128 -50 -329 -16 -436 23 -74
125 -177 125 -127 0 7 -5 18 -11 24 -51 51 195 69 382 28 189 -42 313 -88 411
-152 78 -51 107 -91 168 -234 52 -122 75 -148 258 -289 141 -108 275 -204 627
-445 661 -454 769 -529 842 -586 99 -79 150 -179 128 -251 -29 -93 -71 -142
-101 -117 -12 10 -12 14 -2 22 9 6 8 7 -5 3 -11 -4 -37 5 -64 20 -43 26 -49
27 -148 21 -78 -4 -107 -2 -121 8 -18 13 -18 14 -1 33 26 28 94 44 171 40 56
-2 64 -1 49 10 -23 17 -156 58 -216 66 -96 14 -157 -30 -157 -113 0 -107 83
-177 239 -200 86 -14 91 -16 91 -42 0 -11 5 -17 10 -14 15 10 12 -21 -4 -34
-17 -14 -31 2 -20 21 4 7 -12 -7 -34 -32 -22 -25 -38 -47 -36 -49 2 -3 18 11
35 30 21 24 28 28 25 14 -7 -27 9 -54 17 -30 4 9 3 13 -3 10 -6 -3 -10 -1 -10
4 0 13 17 14 24 2 11 -17 -6 -40 -59 -81 -32 -25 -59 -39 -66 -34 -8 4 -9 3
-5 -4 5 -8 -7 -14 -34 -18 -22 -4 -40 -10 -40 -14 0 -16 -90 -32 -179 -31
-139 2 -244 23 -461 93 -101 33 -168 64 -264 122 -95 57 -152 51 -279 -29 -37
-24 -46 -36 -47 -60 -1 -19 -4 -25 -8 -15 -27 58 -43 70 -99 70 -33 0 -52 4
-48 10 9 14 -28 0 -41 -16 -8 -10 -14 3 -23 53 -15 84 -26 103 -55 103 -22 0
-25 -6 -35 -67 -6 -38 -12 -88 -13 -113 l-3 -45 -18 50 c-9 27 -22 93 -28 145
-12 117 -24 164 -45 181 -14 11 -18 10 -30 -6 -35 -48 -50 -213 -32 -360 8
-65 5 -64 -37 17 -38 72 -50 173 -35 296 14 117 10 147 -22 156 -32 8 -50 -15
-89 -109 -31 -75 -33 -87 -34 -202 0 -67 -2 -120 -3 -118 -2 2 -17 40 -32 86
-16 45 -33 86 -39 92 -18 18 -33 -43 -35 -141 -1 -91 -1 -93 -16 -60 -20 46
-19 233 2 313 9 33 19 79 23 102 6 37 4 42 -15 48 -18 6 -31 -2 -67 -41 -81
-88 -126 -204 -126 -325 0 -84 -7 -90 -51 -38 -99 118 -174 312 -201 519 -15
111 -34 127 -67 53 -25 -57 -36 -217 -20 -301 11 -61 3 -58 -23 8 -35 90 -28
299 15 445 5 17 11 68 13 113 l4 84 -33 -39 c-34 -39 -104 -172 -122 -233 -14
-46 -35 -177 -34 -215 0 -28 -1 -27 -20 15 -32 73 -58 208 -58 305 0 100 22
266 45 335 13 40 65 116 65 95 0 -4 10 4 23 18 12 14 35 32 51 41 25 13 13 14
-132 9 -255 -9 -499 26 -752 109 -222 72 -356 153 -518 311 -89 87 -172 207
-172 248 0 26 3 29 33 29 44 0 62 -13 207 -155 69 -67 145 -135 170 -152 125
-84 308 -155 519 -199 106 -23 152 -27 288 -28 140 -1 164 1 179 16 14 14 16
22 6 42 -32 70 -155 164 -292 222 -97 42 -214 111 -320 190 -169 126 -275 167
-426 166 -97 -1 -193 -28 -255 -73 -27 -19 -35 -20 -90 -10 -67 11 -184 60
-172 72 20 18 256 129 323 152 160 53 364 60 502 17 37 -11 123 -47 193 -80
145 -68 245 -102 371 -125 169 -31 215 -54 275 -141 33 -49 24 -56 -29 -24
-18 11 -61 27 -95 35 -109 26 -140 16 -66 -20 23 -10 58 -39 79 -63 32 -35 42
-59 56 -120 9 -43 28 -98 42 -124 25 -47 42 -61 42 -35 2 50 20 220 26 228 3
6 14 1 25 -12 10 -12 19 -18 19 -12 0 5 6 17 13 28 11 14 16 15 22 5 5 -9 4
-11 -3 -6 -7 4 -12 1 -12 -9 0 -10 5 -15 14 -12 9 4 17 -8 25 -36 29 -102 55
-177 62 -177 15 0 39 104 38 164 0 34 -8 91 -18 129 -13 52 -15 67 -4 67 7 0
10 6 6 15 -3 9 -2 15 3 14 15 -3 74 13 74 20 0 4 16 13 35 21 19 8 35 17 35
20 0 4 -19 15 -42 26 -52 22 -141 78 -187 117 -18 16 -40 26 -48 23 -9 -4 -13
-1 -10 6 2 7 -10 23 -27 36 -17 12 -32 18 -34 13 -2 -6 -17 5 -33 24 -54 61
-107 79 -249 82 -181 4 -358 17 -420 33 -19 5 -59 11 -88 15 -28 4 -50 11 -47
16 4 5 -7 6 -24 3 -33 -7 -139 15 -123 25 5 3 -29 7 -77 8 -77 2 -303 50 -245
52 11 1 29 8 40 16 19 14 18 14 -3 15 -13 0 -23 -4 -23 -9 0 -5 -24 -8 -54 -8
-54 2 -69 17 -17 17 15 0 36 6 46 14 18 13 17 15 -20 21 -22 3 -47 10 -56 15
-11 6 -23 4 -35 -5 -18 -13 -18 -14 1 -29 38 -28 9 -25 -80 9 -50 19 -79 34
-65 34 14 -1 43 2 65 5 30 4 34 4 15 -3 -22 -8 -20 -9 16 -10 52 -1 68 24 26
40 -15 6 -35 15 -45 21 -10 5 -27 6 -38 3 -10 -4 -19 -2 -19 3 0 16 -42 22
-55 8 -10 -10 -7 -15 16 -29 22 -12 29 -13 29 -3 0 9 9 12 25 8 l25 -4 -21
-19 c-17 -14 -26 -16 -41 -8 -11 6 -31 9 -44 6 -13 -2 -32 2 -41 9 -10 7 -27
14 -38 14 l-20 1 20 10 c16 7 12 8 -15 5 -19 -3 -29 -2 -21 1 11 5 11 7 0 15
-12 7 -11 9 1 7 34 -3 80 1 80 9 0 4 -16 7 -36 6 -26 -2 -33 1 -25 9 7 7 7 15
-2 25 -10 13 -9 14 11 3 12 -7 31 -9 41 -6 10 3 31 1 46 -5 59 -23 29 -3 -53
35 -48 21 -89 42 -92 45 -14 17 -77 47 -90 43 -12 -4 -12 -3 -1 5 10 7 10 11
1 17 -13 8 -5 55 16 97 l14 27 57 -35 c92 -56 269 -139 380 -178 118 -40 150
-56 214 -101 49 -35 138 -85 151 -85 23 0 -3 63 -111 275 -177 346 -209 466
-198 735 4 80 14 195 22 255 23 167 34 278 40 405 6 135 20 165 75 165 24 0
38 -7 54 -28 20 -27 21 -41 21 -205 -1 -138 -6 -209 -24 -322 -31 -187 -34
-396 -8 -520 68 -321 245 -628 437 -760 70 -48 133 -69 240 -81 125 -14 213 3
224 44 10 38 7 45 -42 104 -100 120 -144 194 -198 334 -66 172 -89 324 -74
498 14 152 39 257 117 481 76 220 99 270 135 290 25 13 29 13 55 -6 24 -19 28
-28 27 -70 -1 -27 -18 -105 -38 -174 -99 -339 -116 -427 -116 -600 0 -205 51
-378 145 -495 29 -36 31 -43 19 -60 -31 -42 -6 -97 35 -76 13 8 22 26 27 59
18 126 100 284 312 601 307 459 392 687 392 1051 0 179 7 215 47 240 22 13 88
6 110 -12z m2449 -163 c72 -73 142 -204 169 -315 26 -103 31 -328 11 -439 -69
-375 -281 -696 -667 -1010 -306 -248 -534 -361 -949 -471 -189 -49 -200 -54
-261 -102 l-48 -38 -47 50 c-47 50 -123 100 -152 100 -34 0 55 72 143 114 133
66 165 74 367 91 233 19 293 29 458 71 149 39 228 77 345 164 266 200 493 509
589 800 47 144 60 236 54 380 -6 138 5 152 38 49 21 -64 21 -64 28 -31 28 123
-47 353 -167 511 -60 78 -67 100 -41 125 31 32 63 19 130 -49z m-1761 -259
c26 -19 30 -99 10 -226 -42 -276 -39 -408 15 -610 16 -63 33 -148 37 -187 3
-40 9 -73 13 -73 21 0 76 79 119 172 62 131 111 289 150 477 33 157 60 215
108 227 37 10 75 -14 86 -53 7 -24 3 -55 -22 -140 -102 -347 -182 -555 -268
-696 -32 -53 -34 -60 -20 -74 14 -14 26 -15 105 -3 49 7 95 11 101 9 13 -5
-19 -41 -81 -91 -86 -71 -275 -148 -360 -148 -34 0 -39 3 -33 18 4 9 16 51 27
92 35 137 11 399 -42 454 -32 33 -50 14 -50 -51 0 -71 -10 -133 -20 -133 -16
0 -53 187 -57 290 -4 76 1 144 16 245 12 77 28 190 37 250 28 208 32 229 55
248 25 20 49 22 74 3z m920 -42 c65 -66 101 -302 75 -489 -32 -220 -159 -473
-324 -643 -72 -75 -181 -155 -226 -166 -23 -5 -23 -5 3 7 15 7 25 15 23 18 -3
3 21 34 54 69 33 36 81 102 107 148 26 46 63 106 81 134 34 53 38 63 22 53
-15 -9 -14 -4 35 114 69 169 86 246 92 406 5 122 3 152 -16 222 -20 78 -20
103 2 131 13 17 52 15 72 -4z m722 -90 c-3 -3 -12 -4 -19 -1 -8 3 -5 6 6 6 11
1 17 -2 13 -5z m83 -4 c12 -8 9 -9 -12 -8 -15 1 -24 6 -22 10 7 10 16 10 34
-2z m-4582 -1039 c16 -10 73 -195 62 -199 -25 -9 -306 131 -325 162 -20 33 18
46 139 46 61 0 117 -4 124 -9z m2474 -8 c53 -47 -14 -233 -131 -365 -80 -90
-173 -138 -294 -153 l-58 -7 7 38 c19 108 76 312 105 375 18 38 48 83 66 99
34 30 34 30 160 30 104 0 130 -3 145 -17z m1708 10 c0 -12 -183 -187 -245
-234 -204 -154 -380 -223 -655 -254 -144 -17 -316 -17 -314 0 1 6 46 26 100
46 137 50 296 130 379 191 39 28 115 98 170 154 l100 103 233 0 c127 1 232 -2
232 -6z m530 -300 c92 -69 240 -211 316 -303 107 -129 209 -322 273 -515 39
-118 69 -251 58 -261 -3 -3 -34 18 -69 48 -162 137 -199 159 -242 142 -28 -11
-20 -60 14 -86 238 -181 362 -318 289 -318 -40 0 -266 51 -404 91 -230 67
-368 121 -397 157 -12 14 6 15 187 8 110 -3 211 -9 225 -13 l24 -6 -23 34
c-62 94 -75 173 -41 244 21 42 21 49 8 83 -8 21 -25 42 -40 50 -25 12 -26 16
-21 65 8 77 -12 98 -137 137 -70 22 -131 34 -209 39 -146 11 -161 22 -184 128
-15 69 -25 93 -67 153 -8 12 15 41 112 141 l123 126 55 -36 c30 -19 98 -68
150 -108z m-5460 -74 c220 -164 432 -290 608 -360 45 -18 82 -36 82 -39 0 -4
-64 -37 -142 -75 -79 -38 -160 -79 -181 -92 -29 -18 -42 -21 -57 -13 -27 15
-87 12 -120 -5 -59 -31 -73 -95 -44 -211 9 -36 14 -68 10 -71 -3 -4 -102 -24
-219 -45 -254 -46 -306 -67 -332 -131 -12 -28 -19 -82 -23 -159 -3 -71 -9
-118 -15 -118 -42 0 -63 -78 -27 -103 22 -15 17 -29 -6 -20 -39 15 -73 -69
-39 -97 24 -20 18 -26 -20 -22 -31 4 -36 1 -45 -24 -8 -20 -8 -35 -1 -52 16
-34 14 -38 -16 -37 -34 0 -60 -43 -44 -73 8 -15 1 -26 -40 -61 -56 -48 -73
-45 -73 13 0 33 8 52 101 226 54 101 77 171 118 368 41 193 106 353 181 440
29 34 38 39 77 39 83 0 148 64 149 147 2 81 -53 136 -135 136 -92 0 -152 -72
-143 -174 4 -56 3 -61 -36 -109 -85 -108 -141 -252 -189 -483 -38 -185 -67
-265 -140 -389 -71 -122 -87 -183 -66 -254 14 -48 14 -51 -7 -69 -27 -25 -128
-92 -138 -92 -12 0 -10 706 2 818 22 208 108 478 211 666 127 231 315 437 523
576 74 50 91 57 105 47 9 -7 68 -51 131 -98z m438 23 c5 -17 -13 -15 -27 2
-10 12 -9 14 5 12 10 -2 20 -8 22 -14z m3156 -36 c-54 -38 -94 -86 -94 -114 0
-14 12 -38 27 -54 14 -15 25 -29 22 -31 -2 -2 -40 -23 -84 -47 -44 -23 -97
-54 -118 -68 -20 -14 -40 -23 -42 -20 -3 3 9 32 28 64 18 32 51 97 72 144 71
153 63 144 136 150 80 6 90 2 53 -24z m-3054 3 c0 -14 -16 -11 -29 5 -10 12
-8 13 8 9 12 -3 21 -9 21 -14z m4374 -192 c45 -134 168 -215 330 -218 34 -1
72 -4 86 -9 l25 -8 -32 -12 c-55 -20 -42 -70 19 -70 27 0 18 -23 -13 -30 -15
-4 -25 -14 -27 -28 -3 -18 2 -22 22 -22 30 0 76 -17 76 -27 0 -5 -10 -13 -22
-18 -27 -12 -35 -40 -18 -60 15 -18 44 -19 71 -2 17 10 22 9 35 -8 20 -26 14
-60 -10 -60 -24 0 -41 -27 -32 -50 5 -14 15 -17 51 -13 48 6 68 -13 42 -40
-17 -17 -103 -5 -179 24 -41 16 -56 17 -125 7 l-78 -12 -52 52 c-29 28 -53 54
-53 58 0 10 75 29 115 29 20 0 68 -7 106 -17 38 -9 72 -14 75 -10 13 13 -21
50 -64 69 -57 25 -178 27 -261 5 l-55 -15 -55 51 c-157 149 -198 195 -204 234
-14 81 -8 106 34 142 21 18 39 28 39 22 0 -22 85 -132 155 -200 80 -78 167
-126 247 -137 58 -8 78 -1 71 24 -3 13 -22 26 -51 36 -139 49 -263 150 -331
269 l-33 58 28 30 c15 16 32 28 37 26 4 -1 18 -33 31 -70z m-426 -204 c-60
-79 -88 -130 -88 -159 0 -33 64 -100 265 -279 475 -421 595 -499 861 -565 210
-52 504 -81 572 -57 l22 8 0 -730 c0 -481 -3 -731 -10 -731 -5 0 -10 5 -10 10
0 6 -78 91 -174 189 -151 155 -179 189 -209 252 -47 100 -61 165 -61 293 0
107 0 108 27 128 15 11 34 33 43 50 14 27 14 32 -1 54 -18 27 -50 31 -75 9
-16 -14 -19 -13 -35 11 -41 63 -108 103 -285 173 -241 94 -394 218 -680 551
-68 80 -183 205 -254 278 -194 198 -259 242 -286 193 -15 -30 -6 -43 93 -132
104 -93 201 -195 398 -419 222 -252 384 -400 529 -483 25 -14 112 -53 194 -86
165 -68 207 -94 235 -150 16 -30 18 -45 11 -77 -21 -90 -4 -266 36 -373 38
-102 85 -164 242 -321 189 -189 228 -250 258 -408 19 -98 18 -176 -1 -192 -8
-7 -15 -26 -15 -42 0 -16 6 -31 15 -34 13 -5 15 -36 15 -190 0 -101 -2 -184
-6 -184 -8 0 -126 80 -154 105 -14 13 -36 26 -50 30 -14 4 -34 16 -45 26 -35
33 -139 115 -170 134 -16 10 -57 44 -90 75 -58 55 -111 83 -151 78 -10 -1 -41
8 -68 21 -59 28 -96 23 -156 -20 -31 -23 -50 -49 -75 -102 -30 -65 -40 -77
-107 -123 -85 -59 -123 -74 -187 -73 -72 0 -106 18 -143 74 -41 62 -83 84
-164 85 -55 0 -63 -3 -92 -33 -67 -69 -125 -290 -121 -457 2 -80 -1 -103 -20
-142 -11 -25 -24 -67 -27 -92 -8 -55 -17 -55 -60 1 -32 42 -45 72 -144 323
-35 91 -85 196 -120 254 -34 54 -59 100 -57 102 1 2 37 -7 79 -20 42 -13 95
-27 118 -31 73 -12 126 26 101 74 -6 10 -48 40 -93 64 -123 67 -216 136 -305
225 -91 93 -172 202 -149 202 28 0 161 -53 326 -130 91 -43 198 -89 237 -103
212 -77 428 -75 618 4 153 64 294 208 320 327 4 21 16 37 34 47 41 21 125 117
171 194 53 90 106 221 120 299 27 155 -43 295 -210 418 -82 61 -568 405 -880
622 -151 106 -284 199 -294 207 -16 12 -18 23 -13 65 8 66 -6 141 -40 210 -33
68 -151 188 -215 219 -27 13 -48 27 -48 31 0 11 51 29 232 85 183 56 302 102
404 154 43 22 85 40 92 41 7 0 -6 -26 -30 -57z m173 32 c5 4 6 -1 3 -9 -3 -9
-1 -16 5 -16 6 0 11 -6 11 -12 -1 -7 -10 -2 -20 11 -11 13 -20 28 -19 35 0 7
2 6 6 -2 2 -6 9 -10 14 -7z m-44 -127 c21 -18 70 -63 108 -99 351 -333 522
-462 726 -542 131 -52 444 -133 586 -152 56 -7 77 -23 67 -48 -9 -24 -64 -31
-188 -24 -270 16 -556 89 -693 179 -136 89 -410 321 -626 530 l-89 86 27 51
c16 28 32 51 36 51 4 0 25 -15 46 -32z m-4831 -54 c16 -24 16 -27 -3 -52 -50
-67 -125 -13 -77 56 21 30 59 29 80 -4z m516 -181 c24 -26 48 -65 48 -77 0 -7
-79 -30 -85 -24 -3 2 -8 32 -11 66 -8 72 5 81 48 35z m3333 2 c85 -22 154 -58
201 -105 55 -54 96 -131 92 -173 -3 -32 -3 -32 -58 -31 -115 2 -197 76 -305
276 -30 56 -30 61 -7 54 10 -3 44 -13 77 -21z m-3202 -259 c24 -51 16 -70 -26
-63 -80 12 -111 26 -81 38 44 17 -56 8 -171 -17 -66 -13 -158 -32 -205 -40
-47 -8 -111 -24 -144 -35 -32 -11 -61 -18 -63 -15 -14 13 12 39 59 61 96 44
448 115 553 112 59 -2 60 -2 78 -41z m233 -123 c89 -98 199 -188 306 -250 46
-27 78 -52 78 -62 0 -25 -46 -192 -92 -331 -48 -146 -141 -347 -220 -475 -105
-168 -262 -338 -393 -425 -101 -66 -123 -101 -91 -142 30 -41 127 -49 263 -23
43 8 85 15 93 15 18 0 -164 -185 -275 -279 -259 -221 -500 -349 -888 -472 -89
-28 -183 -62 -208 -75 -78 -39 -99 -97 -59 -162 23 -37 28 -33 -74 -62 -38
-11 -73 -17 -77 -14 -5 3 -9 65 -8 137 l1 132 136 68 c164 81 185 95 185 130
0 75 -61 76 -198 2 -57 -30 -108 -55 -114 -55 -8 0 -11 117 -11 404 0 377 1
405 18 410 9 3 53 12 97 21 44 9 104 23 132 32 29 9 55 14 58 11 3 -2 14 -76
25 -164 36 -288 75 -475 112 -526 57 -81 165 -75 230 12 13 18 37 38 55 45 37
16 51 53 34 91 -6 14 -11 26 -11 28 0 2 18 8 41 15 22 7 42 18 45 26 3 8 -19
85 -49 172 -64 183 -130 416 -125 438 2 9 134 80 313 168 623 307 744 377 868
506 37 38 67 74 67 81 0 16 -58 160 -76 188 -8 12 -24 22 -35 22 -14 0 -25 13
-40 48 -11 26 -57 99 -103 162 -76 106 -123 199 -140 275 l-6 30 31 -35 c18
-19 65 -72 105 -117z m-716 -9 c-24 -15 -21 -15 28 0 42 13 22 -4 -40 -35 -35
-17 -84 -47 -109 -65 -54 -39 -59 -41 -59 -15 0 21 50 58 155 115 38 20 58 20
25 0z m533 -12 c9 -10 18 -29 19 -43 2 -19 -2 -25 -22 -27 -55 -7 -234 -112
-304 -178 -55 -52 -100 -138 -126 -240 l-10 -41 -43 7 c-23 5 -93 14 -154 21
-62 7 -113 16 -113 19 0 4 7 26 15 49 7 22 19 78 25 123 10 80 12 84 55 125
51 47 208 130 309 163 47 15 108 25 190 30 67 4 126 8 132 8 6 1 18 -6 27 -16z
m52 -139 c-11 -8 -49 -29 -85 -47 -36 -18 -83 -43 -105 -56 -30 -18 -36 -19
-23 -5 26 28 185 121 210 122 23 2 23 2 3 -14z m128 -138 c26 -38 47 -77 47
-86 0 -10 -15 -28 -32 -40 -18 -13 -34 -27 -36 -31 -2 -4 -8 -8 -14 -8 -5 0
-28 -15 -51 -33 -60 -48 -223 -146 -244 -147 -20 0 -56 72 -69 137 l-12 64 58
46 c63 51 279 175 295 170 6 -2 31 -34 58 -72z m688 -99 c31 -9 59 -22 62 -29
6 -16 -18 -202 -38 -292 -9 -38 -29 -114 -46 -168 -17 -55 -29 -108 -27 -120
3 -23 54 -45 69 -30 14 14 54 162 99 363 51 234 50 231 92 220 18 -5 52 -14
76 -20 l43 -11 -6 -52 c-3 -29 -12 -115 -21 -192 -35 -319 -121 -766 -180
-937 -96 -275 -263 -575 -438 -788 -102 -123 -302 -310 -456 -426 -405 -305
-1034 -440 -1765 -379 -245 20 -305 27 -305 35 0 8 261 105 385 143 44 14 143
37 220 52 181 35 479 100 575 126 72 19 260 79 269 86 11 8 -12 15 -75 24
-126 17 -344 80 -344 99 0 4 -12 11 -27 14 -45 11 -113 38 -113 45 0 4 35 13
78 20 142 23 446 90 597 132 170 46 305 96 455 167 95 45 244 134 195 116 -43
-15 -177 -32 -310 -38 l-140 -6 135 88 c187 122 273 193 435 356 201 202 366
422 452 601 69 145 29 171 -67 43 -79 -104 -160 -189 -174 -181 -6 3 -8 3 -4
-2 23 -25 -159 -124 -293 -160 -52 -14 -100 -25 -107 -25 -8 0 10 20 40 45
162 138 314 350 413 575 45 103 126 345 151 453 10 44 22 76 28 74 6 -2 36
-12 67 -21z m-539 -113 l21 -47 -27 -23 c-28 -24 -46 -23 -46 3 0 24 -28 16
-47 -13 -10 -16 -22 -31 -27 -34 -5 -4 -5 -12 -2 -18 4 -6 2 -11 -3 -11 -6 0
-11 5 -11 10 0 23 -35 10 -119 -44 -25 -16 -61 -36 -80 -45 -20 -9 -56 -28
-81 -43 -25 -14 -92 -46 -150 -71 -149 -64 -322 -146 -340 -162 -22 -20 -249
-134 -285 -143 -24 -7 -31 -15 -36 -43 -4 -19 -7 -27 -8 -18 0 9 -10 19 -22
22 -16 4 -20 12 -17 38 3 31 10 36 138 102 74 38 227 112 340 164 386 177 556
268 720 384 30 21 56 39 58 39 2 0 12 -21 24 -47z m-555 -102 c-10 -4 -27 17
-27 34 0 6 5 3 10 -5 8 -12 10 -12 11 5 1 16 2 15 8 -5 4 -14 3 -27 -2 -29z
m-390 4 c117 -15 247 -46 328 -80 l39 -17 -26 -14 c-23 -12 -36 -11 -109 11
-100 30 -231 53 -357 63 l-92 7 15 23 c19 27 37 27 202 7z m1998 -1070 c-31
-309 -57 -450 -115 -622 -125 -369 -393 -722 -662 -872 -51 -28 -160 -63 -169
-54 -4 5 46 53 111 107 282 235 479 475 545 664 29 82 31 112 10 112 -18 0
-20 17 -2 23 6 2 9 7 5 11 -12 14 -49 -20 -79 -71 -17 -29 -35 -55 -40 -58 -5
-4 -29 -41 -54 -83 -45 -78 -110 -152 -224 -255 -63 -58 -81 -91 -22 -42 17
15 31 23 31 18 -1 -8 -84 -73 -95 -73 -3 0 -3 5 1 12 4 7 3 8 -5 4 -6 -4 -9
-11 -6 -16 3 -4 -12 -18 -32 -31 -21 -12 -42 -27 -48 -33 -13 -15 -127 -86
-191 -119 -147 -77 -447 -177 -528 -177 l-41 0 80 52 c340 221 448 304 608
466 181 184 263 285 433 533 261 378 362 614 409 954 28 201 76 507 83 524 4
9 8 -171 10 -399 2 -322 -1 -451 -13 -575z m-2075 945 c112 -12 250 -40 250
-51 0 -11 -187 -82 -220 -83 -8 -1 -14 -6 -13 -13 2 -8 -4 -10 -14 -6 -11 4
-14 3 -9 -5 4 -7 2 -10 -7 -6 -8 3 -65 -24 -128 -60 l-114 -66 -7 58 c-5 32
-17 69 -29 85 l-20 28 28 35 c15 20 35 46 43 60 8 13 22 25 30 28 28 7 115 6
210 -4z m-366 -262 c3 -18 14 -141 26 -273 11 -132 24 -278 29 -325 8 -70 7
-88 -5 -100 -12 -12 -16 -12 -23 -2 -10 16 -28 175 -46 417 -19 246 -19 315
-1 315 8 0 16 -14 20 -32z m-119 -63 c4 -35 5 -71 2 -78 -11 -29 -269 -92
-424 -104 -83 -6 -83 -6 -83 18 0 13 9 38 19 55 32 53 82 83 172 103 46 11
131 31 189 44 58 14 108 25 112 26 3 0 10 -28 13 -64z m375 -105 c0 -5 -4 -10
-10 -10 -5 0 -10 5 -10 10 0 6 5 10 10 10 6 0 10 -4 10 -10z m-362 -107 c-3
-37 -4 -38 -48 -44 -25 -3 -65 -11 -90 -17 -96 -23 -148 -33 -225 -41 -44 -5
-81 -14 -83 -20 -2 -6 -8 -11 -13 -11 -6 0 -7 5 -3 12 5 8 -11 10 -64 5 -76
-6 -85 -2 -97 43 l-6 25 130 2 c135 1 290 25 406 62 91 29 97 28 93 -16z
m-140 -87 c-7 -8 -15 -12 -17 -11 -5 6 10 25 20 25 5 0 4 -6 -3 -14z m421
-218 c37 -200 38 -228 6 -228 -13 0 -17 21 -40 235 -16 137 -19 212 -9 203 3
-4 22 -98 43 -210z m3884 -16 c-2 -10 -10 -19 -17 -19 -8 0 -11 8 -8 19 2 10
10 18 17 18 8 0 11 -8 8 -18z m77 -17 c0 -8 -6 -15 -14 -15 -17 0 -28 14 -19
24 12 12 33 6 33 -9z m67 -37 c-3 -8 -6 -5 -6 6 -1 11 2 17 5 13 3 -3 4 -12 1
-19z m-67 -30 c0 7 14 12 38 12 29 0 34 -3 22 -11 -12 -9 -11 -10 7 -6 13 3
24 -1 27 -9 8 -20 57 -17 118 7 74 29 101 26 203 -21 282 -130 604 -196 845
-171 57 5 106 9 108 7 1 -2 -27 -21 -62 -42 -68 -40 -80 -54 -47 -54 61 0 7
-41 -85 -65 -72 -19 -87 -19 -54 0 15 9 19 14 10 15 -8 0 -26 3 -40 5 -22 5
-23 4 -5 -5 17 -9 15 -10 -12 -5 -48 7 -202 -7 -178 -16 18 -7 17 -8 -5 -8
-14 -1 -41 4 -60 9 -19 6 -48 13 -65 16 -16 3 -32 9 -33 15 -2 5 -8 7 -12 4
-5 -3 -102 39 -217 94 -166 79 -361 157 -438 175 -5 2 -28 7 -50 11 l-40 9 30
7 c29 6 29 7 -8 8 -23 1 -36 -3 -32 -9 3 -5 1 -10 -4 -10 -6 0 -11 7 -11 15 0
8 -4 15 -10 15 -5 0 -10 -5 -10 -11 0 -5 -5 -7 -11 -4 -6 5 -2 13 11 22 19 13
24 13 31 2 7 -11 9 -10 9 5 0 20 0 20 15 0 8 -11 15 -14 15 -6z m-1430 -623
c23 -215 86 -446 169 -614 22 -46 41 -89 41 -96 0 -7 6 -16 13 -18 7 -3 8 -6
1 -6 -6 -1 -40 26 -76 58 -197 181 -306 486 -278 780 11 119 27 192 72 326
l32 100 7 -210 c4 -115 13 -259 19 -320z m-2620 380 c9 -19 30 -119 30 -133
-1 -4 -8 6 -16 21 -18 33 -45 165 -43 210 1 23 4 17 11 -23 5 -30 14 -64 18
-75z m3091 -83 c38 -119 107 -234 452 -752 67 -100 191 -268 236 -319 11 -13
21 -26 21 -29 0 -9 -59 11 -130 45 -61 30 -95 57 -180 142 -216 217 -374 518
-416 791 -23 155 -15 219 17 122z m1976 -38 c-3 -3 -12 -4 -19 -1 -8 3 -5 6 6
6 11 1 17 -2 13 -5z m-2269 -229 c37 -142 111 -300 224 -480 113 -179 162
-253 235 -352 46 -61 83 -114 83 -117 0 -3 -24 4 -52 15 -222 87 -467 447
-518 761 -12 73 -14 258 -2 258 4 0 17 -38 30 -85z m3054 -76 c19 -10 18 -12
-20 -35 -88 -53 -69 -166 36 -209 36 -16 48 -36 34 -60 -8 -15 -11 -15 -23 -3
-8 8 -20 13 -28 10 -9 -3 -11 0 -6 8 5 8 4 11 -3 6 -10 -6 -35 6 -102 46 -20
12 -21 18 -16 76 5 63 24 104 66 150 24 25 33 27 62 11z m126 -55 c22 -15 22
-15 -30 -55 -53 -39 -78 -46 -86 -21 -4 12 72 92 87 92 4 0 17 -7 29 -16z
m-1734 -169 c80 -109 146 -271 146 -355 0 -22 -3 -21 -46 20 -87 85 -177 276
-198 420 l-7 45 31 -35 c17 -19 50 -62 74 -95z m-183 -225 c74 -124 142 -241
151 -262 l17 -36 -37 10 c-121 33 -303 149 -410 262 -77 82 -142 183 -173 271
-29 82 -21 97 21 39 84 -119 285 -304 329 -304 29 0 27 11 -18 79 -35 55 -67
147 -86 251 -6 33 -4 31 33 -25 21 -33 99 -161 173 -285z m2025 307 l27 -24
-48 -26 c-52 -30 -61 -32 -70 -17 -6 10 43 90 56 90 4 0 20 -10 35 -23z
m-1006 -27 c10 -5 32 -35 49 -66 26 -44 41 -60 77 -75 113 -50 216 -48 328 7
31 15 59 24 63 21 11 -12 -49 -67 -102 -93 -58 -28 -117 -32 -185 -14 -64 17
-210 82 -205 90 3 5 -2 11 -11 14 -8 3 -13 10 -10 15 6 10 -73 33 -86 25 -10
-6 6 36 24 65 14 23 30 26 58 11z m1118 -46 c32 -22 28 -36 -20 -67 -71 -46
-101 -32 -53 25 14 16 25 36 25 44 0 18 20 18 48 -2z m-3023 -76 c27 -46 70
-115 97 -154 26 -39 48 -76 48 -83 0 -7 5 -9 12 -5 6 4 8 3 4 -4 -3 -5 0 -13
6 -15 9 -4 9 -6 1 -6 -25 -2 -120 106 -158 178 -18 35 -66 171 -61 171 2 0 25
-37 51 -82z m3155 -23 c13 -14 22 -26 19 -28 -31 -24 -88 -47 -116 -47 l-35 0
36 40 c20 22 36 45 36 50 0 19 37 10 60 -15z m-308 -45 c-7 -76 -24 -104 -130
-212 -58 -59 -109 -105 -113 -102 -5 3 -6 -2 -3 -10 3 -9 1 -16 -4 -16 -6 0
-14 -9 -17 -21 -4 -11 -9 -18 -11 -16 -15 15 49 111 124 187 86 85 119 139
124 199 2 22 7 31 18 29 11 -2 14 -13 12 -38z m-194 -20 c28 -17 52 -36 52
-44 0 -7 -36 -46 -80 -86 -65 -58 -87 -85 -113 -141 l-32 -69 -60 6 c-33 4
-76 8 -95 9 -54 4 -119 37 -179 91 -32 29 -56 44 -58 37 -3 -8 -20 2 -44 24
-21 20 -48 43 -60 51 -32 23 -137 72 -153 72 -8 0 -24 9 -37 19 -23 19 -23 20
-6 38 20 20 2 25 232 -68 114 -46 139 -52 200 -52 76 0 136 21 239 85 113 70
119 70 194 28z m627 -10 c17 -19 17 -21 -1 -41 -21 -23 -204 -129 -222 -129
-15 0 -31 40 -25 58 6 14 39 16 48 2 3 -5 10 -10 15 -10 15 0 119 100 125 121
8 25 37 24 60 -1z m-315 -29 c0 -20 -25 -51 -41 -51 -10 0 -12 53 -2 63 14 15
43 7 43 -12z m-3760 -119 c0 -143 -35 -260 -100 -330 -27 -30 -33 -32 -99 -32
-39 0 -71 3 -71 8 0 4 17 30 38 58 116 152 212 326 212 384 0 11 5 18 10 15 6
-3 10 -49 10 -103z m-236 26 c-34 -103 -92 -191 -174 -264 -47 -42 -120 -88
-120 -77 0 4 20 28 44 53 68 71 167 198 216 277 24 40 46 70 48 68 2 -2 -4
-28 -14 -57z m4624 1 c273 -72 332 -94 390 -148 36 -34 41 -60 12 -68 -11 -3
-17 -9 -14 -14 3 -5 -2 -9 -11 -9 -8 0 -23 -4 -33 -10 -30 -17 -122 -50 -140
-50 -14 1 82 40 97 40 2 0 1 3 -3 7 -4 4 8 13 26 19 23 9 27 13 13 14 -18 1
-18 2 5 16 l25 15 -25 -7 c-26 -6 -58 -20 -181 -78 -42 -20 -82 -36 -88 -36
-7 0 -10 -3 -8 -7 3 -5 -9 -8 -26 -9 -18 0 -77 -6 -132 -13 -178 -24 -479 7
-595 60 -84 39 -179 101 -179 117 -1 6 3 12 7 12 5 0 40 31 78 70 69 69 69 70
105 60 26 -7 40 -19 49 -39 17 -41 49 -68 90 -76 29 -5 48 0 105 30 l68 37
106 -31 c114 -33 142 -37 172 -21 39 21 11 104 -41 122 -12 4 -7 28 6 28 3 0
58 -14 122 -31z m-1738 -61 c0 -10 2 -10 8 -1 11 17 54 -6 58 -31 1 -10 8 -24
14 -30 8 -8 9 -6 5 7 -9 21 1 22 22 1 22 -22 1 -44 -26 -27 -10 7 -28 9 -39 6
-17 -4 -20 -1 -15 16 4 17 1 21 -16 21 -12 0 -20 4 -17 9 4 5 -4 7 -16 3 -20
-5 -19 -6 10 -16 38 -13 32 -26 -11 -26 -28 0 -29 2 -23 32 6 30 20 47 39 48
4 0 7 -6 7 -12z m-11 -173 c46 -8 154 -22 240 -30 385 -38 502 -56 646 -101
126 -40 212 -53 421 -65 346 -19 661 29 830 127 54 32 64 30 64 -9 0 -71 -124
-136 -345 -182 -142 -29 -242 -37 -272 -21 -21 10 -92 15 -298 18 l-270 5
-130 42 c-71 23 -157 45 -191 48 -57 5 -62 4 -96 -26 l-36 -31 -125 0 c-212 0
-427 27 -504 62 -62 29 -66 38 -58 113 8 75 0 72 124 50z m-3591 -343 c53 -39
65 -72 60 -177 -4 -102 -17 -133 -71 -165 -40 -25 -70 -25 -126 0 -31 15 -65
20 -122 20 -152 0 -232 -35 -284 -125 l-27 -46 -87 3 -86 3 -3 205 c-2 138 1
214 9 233 12 29 51 61 84 70 11 3 155 4 320 4 297 -2 300 -2 333 -25z m1071
10 c59 -29 76 -62 79 -157 3 -66 0 -92 -16 -128 -35 -79 -105 -105 -187 -68
-37 16 -67 21 -134 21 -158 -1 -233 -34 -273 -121 l-23 -48 -76 -1 c-61 0 -78
3 -83 16 -3 9 -6 97 -6 197 0 219 11 255 82 287 39 18 67 20 323 20 247 0 284
-2 314 -18z m672 9 c121 -7 144 -11 194 -36 142 -69 222 -224 195 -377 -7 -34
-20 -78 -30 -98 -17 -33 -77 -94 -130 -130 l-21 -15 50 -120 c54 -132 58 -149
47 -183 -22 -66 -162 -68 -220 -4 -10 12 -32 65 -47 119 -36 118 -48 133 -106
133 l-43 0 0 -115 c0 -111 -1 -116 -28 -146 -23 -26 -36 -31 -87 -35 -49 -4
-66 -1 -92 15 -70 44 -68 28 -68 497 0 456 1 462 54 483 55 21 124 24 332 12z
m1169 -79 l0 -88 -35 -17 c-18 -9 -41 -27 -49 -39 -14 -22 -121 -295 -172
-442 -13 -38 -33 -75 -44 -83 -24 -17 -26 -55 -5 -73 13 -11 28 -7 85 19 54
25 92 35 167 42 154 14 264 0 361 -49 41 -20 57 -23 70 -15 29 17 26 51 -7 89
-17 19 -31 36 -31 38 0 20 -174 474 -187 489 -10 10 -32 25 -51 32 l-33 14 3
83 3 83 45 3 c57 3 128 -31 153 -75 32 -55 277 -804 277 -845 0 -30 -7 -46
-29 -69 -26 -25 -37 -29 -88 -29 -72 0 -109 21 -149 83 -15 25 -37 48 -49 51
-27 8 -364 7 -392 0 -13 -4 -36 -27 -52 -53 -34 -56 -79 -81 -148 -81 -67 0
-110 28 -119 76 -6 32 14 100 132 456 76 229 145 426 154 438 21 27 83 49 143
50 l47 0 0 -88z m2209 70 c63 -31 76 -61 76 -170 0 -111 -12 -144 -64 -179
-42 -29 -69 -29 -132 -2 -43 19 -63 21 -152 17 -77 -4 -112 -10 -143 -26 -40
-21 -102 -81 -124 -121 -10 -20 -18 -22 -103 -19 l-92 3 0 210 c0 206 1 211
24 244 42 58 55 60 381 61 262 0 299 -2 329 -18z m-6351 -18 c39 -19 68 -46
113 -103 113 -145 139 -229 139 -452 0 -155 -9 -209 -44 -277 -28 -54 -69 -94
-121 -118 -48 -23 -58 -24 -310 -24 -225 0 -264 2 -284 16 -49 35 -51 54 -51
489 0 349 2 410 16 436 26 52 57 58 285 59 201 0 206 0 257 -26z m5206 4 c14
-19 16 -74 16 -395 l0 -373 71 0 c67 0 73 -2 105 -34 37 -37 44 -74 22 -120
-22 -50 -52 -60 -190 -64 -161 -5 -209 2 -242 35 l-26 26 0 455 c0 410 2 457
17 474 13 15 32 18 114 18 90 0 99 -2 113 -22z m-999 -280 c25 -37 59 -158 47
-170 -13 -13 -94 -22 -126 -14 -32 8 -33 31 -7 108 36 104 54 120 86 76z
m-3179 -199 c29 -28 37 -73 19 -115 -18 -43 -46 -54 -145 -54 -98 0 -110 9
-110 88 0 97 25 114 150 106 47 -4 71 -11 86 -25z m1046 20 c70 -19 91 -107
38 -160 -29 -29 -30 -30 -127 -27 l-98 3 -3 70 c-4 84 2 112 26 118 33 9 127
7 164 -4z m4095 -21 c21 -21 26 -36 26 -74 0 -39 -4 -51 -27 -71 -24 -20 -37
-23 -115 -23 -54 0 -91 4 -99 12 -16 16 -16 140 1 160 19 24 36 28 114 25 64
-2 76 -6 100 -29z m-2004 -35 c-29 -11 -10 -21 22 -12 19 6 40 7 47 3 7 -4 8
-3 4 4 -4 7 -3 12 2 12 6 0 13 -7 16 -16 3 -9 12 -14 18 -12 16 6 45 -31 60
-73 8 -25 8 -33 -3 -40 -16 -10 -280 -11 -297 -1 -5 4 -8 19 -5 34 3 15 10 25
15 22 6 -4 7 2 3 17 -7 23 -7 24 9 4 18 -23 21 -13 5 17 -8 15 -8 19 0 14 6
-4 14 0 17 8 4 11 14 13 34 10 15 -4 31 -1 34 5 4 6 13 11 19 10 9 0 9 -2 0
-6z m-3495 -280 l-3 -218 -40 -3 c-54 -3 -101 27 -125 81 -17 36 -20 66 -20
200 l0 157 95 0 95 0 -2 -217z m1090 -5 l2 -218 -40 0 c-33 0 -48 7 -81 38
-51 47 -58 79 -59 260 l0 143 88 -3 87 -3 3 -217z m4052 2 l0 -220 -42 0 c-54
0 -98 26 -129 76 -22 36 -24 51 -27 202 l-4 162 101 0 101 0 0 -220z m-4577
-22 c38 -39 39 -43 35 -95 -6 -65 -29 -100 -89 -131 -41 -22 -53 -23 -202 -20
-192 4 -187 0 -187 129 0 117 2 119 133 119 81 1 109 5 137 20 21 11 55 19 84
20 45 0 53 -4 89 -42z m1045 26 c83 -58 62 -198 -38 -252 -43 -23 -52 -24
-187 -20 -97 3 -146 8 -157 17 -13 11 -16 34 -16 106 0 52 3 100 6 109 5 13
25 16 108 16 80 1 108 5 136 20 43 23 117 26 148 4z m4072 1 c42 -22 63 -68
58 -125 -6 -60 -34 -100 -91 -128 -39 -20 -58 -22 -178 -21 -74 1 -147 4 -164
8 l-30 6 -3 104 c-2 67 1 108 9 117 8 10 39 14 118 14 85 1 113 5 141 20 43
23 101 25 140 5z m353 -43 c21 -19 22 -60 1 -90 -29 -42 -114 -17 -114 34 0
70 61 100 113 56z m-306 -288 c18 -24 16 -54 -4 -76 -16 -17 -137 -18 -3486
-18 -3293 0 -3470 1 -3483 18 -17 22 -18 66 -1 80 7 6 30 12 52 14 22 2 1586
2 3475 1 3250 -2 3435 -3 3447 -19z"/>
<path d="M5142 7950 c0 -14 2 -19 5 -12 2 6 2 18 0 25 -3 6 -5 1 -5 -13z"/>
<path d="M5121 7914 c0 -11 3 -14 6 -6 3 7 2 16 -1 19 -3 4 -6 -2 -5 -13z"/>
<path d="M4933 7633 c-69 -83 -129 -175 -177 -269 -71 -140 -64 -146 47 -41
80 75 114 122 173 239 57 113 29 159 -43 71z"/>
<path d="M2898 6963 c7 -3 16 -2 19 1 4 3 -2 6 -13 5 -11 0 -14 -3 -6 -6z"/>
<path d="M2965 6960 c3 -5 8 -10 11 -10 2 0 4 5 4 10 0 6 -5 10 -11 10 -5 0
-7 -4 -4 -10z"/>
<path d="M2925 6900 c3 -5 8 -10 11 -10 2 0 4 5 4 10 0 6 -5 10 -11 10 -5 0
-7 -4 -4 -10z"/>
<path d="M3325 6770 c-13 -6 -15 -9 -5 -9 8 0 22 4 30 9 18 12 2 12 -25 0z"/>
<path d="M3688 6693 c6 -2 18 -2 25 0 6 3 1 5 -13 5 -14 0 -19 -2 -12 -5z"/>
<path d="M5373 6398 c3 -23 23 -76 44 -117 43 -87 161 -213 275 -293 64 -46
118 -62 118 -35 0 6 -55 68 -123 137 -131 134 -197 214 -243 297 -22 41 -34
53 -53 53 -22 0 -23 -3 -18 -42z"/>
<path d="M5550 6395 c0 -64 177 -283 267 -332 40 -21 51 -12 34 30 -7 18 -14
40 -15 49 -1 10 -6 21 -11 25 -4 5 -5 1 -1 -7 8 -15 -10 5 -97 112 -26 32 -66
70 -88 85 -46 31 -51 40 -9 18 17 -9 30 -13 30 -11 0 10 -61 37 -70 31 -5 -3
-11 -1 -15 5 -9 15 -25 12 -25 -5z"/>
<path d="M3946 6241 c-18 -28 117 -98 272 -141 116 -32 144 -24 93 28 -24 23
-59 37 -183 72 -84 23 -158 45 -164 47 -7 2 -15 0 -18 -6z"/>
<path d="M5218 6220 c-85 -15 -192 -90 -165 -116 3 -3 36 5 74 17 53 19 89 24
164 24 55 0 102 -5 110 -11 16 -13 69 -27 69 -19 0 16 -35 56 -63 73 -30 17
-116 43 -134 41 -4 -1 -29 -5 -55 -9z"/>
<path d="M5185 5830 c-61 -20 -136 -72 -123 -85 4 -5 33 -3 64 4 72 14 217 14
269 0 75 -20 144 -88 166 -162 l8 -27 -42 33 c-129 103 -249 119 -393 53 -66
-30 -154 -111 -154 -140 0 -30 7 -37 87 -84 119 -72 163 -85 274 -80 85 3 103
7 161 37 l66 34 50 -21 c28 -12 71 -22 96 -22 38 0 52 -6 85 -35 41 -37 80
-45 101 -20 26 31 -20 87 -111 134 -53 27 -54 28 -81 110 -31 95 -75 169 -123
206 -97 73 -283 104 -400 65z m135 -330 c76 -12 92 -12 65 0 -20 8 -20 9 1 9
23 1 68 -32 57 -42 -3 -4 -25 -4 -47 -2 -27 4 -35 3 -22 -3 19 -8 19 -9 -2
-14 -12 -4 -22 -2 -22 3 0 5 -9 9 -20 9 -11 0 -20 4 -20 10 0 5 -15 9 -32 8
-18 -1 -44 2 -58 6 -24 8 -24 8 -5 -8 19 -16 19 -16 -7 -5 -21 9 -25 15 -18
25 6 6 21 10 33 7 18 -4 19 -3 7 7 -13 9 -12 10 5 6 11 -3 49 -10 85 -16z"/>
<path d="M5255 5490 c-3 -5 -1 -10 4 -10 6 0 11 5 11 10 0 6 -2 10 -4 10 -3 0
-8 -4 -11 -10z"/>
<path d="M7360 4262 c0 -11 7 -22 15 -26 8 -3 15 -1 15 4 0 6 -5 10 -11 10 -5
0 -8 4 -4 9 3 5 1 12 -5 16 -5 3 -10 -3 -10 -13z"/>
<path d="M7307 4233 c-3 -5 11 -9 32 -10 27 -1 31 1 16 7 -26 11 -43 12 -48 3z"/>
<path d="M2730 4714 c-76 -56 -201 -143 -390 -269 -107 -72 -127 -97 -100
-131 26 -30 62 -14 234 103 397 271 433 302 394 341 -24 24 -63 12 -138 -44z"/>
<path d="M2436 4074 c-19 -18 -21 -55 -4 -72 7 -7 24 -12 38 -12 14 0 31 5 38
12 28 28 2 88 -38 88 -10 0 -26 -7 -34 -16z"/>
<path d="M2255 5581 c-9 -28 5 -51 31 -51 26 0 47 30 38 54 -9 23 -61 21 -69
-3z"/>
<path d="M2359 5549 c-38 -38 -4 -84 45 -61 32 14 36 56 7 72 -26 13 -28 13
-52 -11z"/>
<path d="M2933 5438 c-12 -6 -24 -17 -27 -25 -4 -11 1 -10 24 4 17 9 30 21 30
25 0 9 1 10 -27 -4z"/>
<path d="M3684 4266 c-4 -18 -11 -23 -22 -19 -10 4 -14 3 -10 -2 4 -4 0 -14
-8 -22 -8 -9 -18 -28 -21 -44 -3 -16 -9 -27 -13 -24 -4 3 -11 -7 -14 -21 -7
-26 -51 -116 -118 -244 -150 -284 -175 -319 -382 -525 -131 -130 -247 -227
-440 -365 -75 -54 -91 -81 -53 -88 32 -6 322 196 522 363 367 308 532 582 570
948 7 66 1 90 -11 43z"/>
<path d="M1810 2798 c-187 -34 -215 -42 -218 -60 -3 -15 4 -18 50 -18 94 0
324 47 356 72 41 33 -29 36 -188 6z"/>
<path d="M2044 5126 c-26 -20 -14 -51 23 -54 24 -2 33 1 38 17 3 12 4 25 1 30
-10 15 -45 19 -62 7z"/>
<path d="M1513 4813 c-13 -5 -18 -45 -7 -55 9 -10 42 3 48 18 12 31 -9 50 -41
37z"/>
<path d="M1365 4786 c-23 -16 -14 -46 14 -46 20 0 37 32 26 50 -8 13 -18 13
-40 -4z"/>
<path d="M7130 3890 c-8 -5 -10 -10 -5 -10 6 0 17 5 25 10 8 5 11 10 5 10 -5
0 -17 -5 -25 -10z"/>
<path d="M6763 3873 c9 -2 25 -2 35 0 9 3 1 5 -18 5 -19 0 -27 -2 -17 -5z"/>
<path d="M4950 2125 l0 -125 75 0 c119 0 165 34 165 123 0 53 -20 101 -49 117
-11 5 -58 10 -105 10 l-86 0 0 -125z"/>
<path d="M1807 2253 c-4 -3 -7 -120 -7 -260 l0 -253 116 0 c63 0 124 5 135 10
17 10 19 23 19 165 0 85 -5 177 -11 205 -13 63 -57 116 -107 130 -42 11 -135
14 -145 3z"/>
<path d="M8717 1613 c-4 -3 -7 -22 -7 -40 0 -27 4 -34 18 -31 10 2 18 14 20
31 2 15 8 27 13 27 12 0 11 -17 -2 -42 -16 -30 -3 -34 16 -4 23 35 12 66 -24
66 -15 0 -31 -3 -34 -7z"/>
</g>
</svg>
